<?xml version="1.0" encoding="UTF-8"?>
<!DOCTYPE svg PUBLIC "-//W3C//DTD SVG 1.1//EN" "http://www.w3.org/Graphics/SVG/1.1/DTD/svg11.dtd">
<!-- Creator: CorelDRAW 2020 (64 Bit) -->
<svg xmlns="http://www.w3.org/2000/svg" xml:space="preserve" width="319px" height="231px" version="1.1" style="shape-rendering:geometricPrecision; text-rendering:geometricPrecision; image-rendering:optimizeQuality; fill-rule:evenodd; clip-rule:evenodd"
viewBox="0 0 108.29 78.34"
 xmlns:xlink="http://www.w3.org/1999/xlink"
 xmlns:xodm="http://www.corel.com/coreldraw/odm/2003">
 <defs>
  <style type="text/css">
   <![CDATA[
    .str0 {stroke:#ED3237;stroke-width:0.07;stroke-miterlimit:22.9256}
    .fil0 {fill:#ED3237}
   ]]>
  </style>
 </defs>
 <g id="Camada_x0020_1">
  <metadata id="CorelCorpID_0Corel-Layer"/>
  <path class="fil0 str0" d="M57 2.38c2.01,0.87 3.74,1.88 5.3,3.12 1.55,1.23 2.92,2.69 4.23,4.46l2.64 3.85c3.35,-1.22 4.33,-1.77 7.75,-1.91 3.59,-0.16 7.42,0.6 10.47,2.35l0 0c4.68,2.66 6.09,5.97 9.26,9.54 0.47,0.53 0.93,0.95 1.76,1.69l0.01 0c4.12,3.66 7.13,8.39 8.65,13.7 1.56,5.46 1.59,11.48 0.03,16.93l0 0c-3.07,10.81 -11.39,18.79 -22.31,21.37l0 0c-5.65,1.34 -11.12,1.02 -16.66,-0.75l0 -0.01c-5.65,-1.8 -11.39,-5.29 -14.4,-10.11 -1.31,1.28 -2.58,2.66 -3.96,3.85 -7.04,6.04 -17.66,7.23 -26.29,4.45 -8.82,-2.83 -16.12,-8.81 -20.22,-17.17 -1.58,-3.24 -2.39,-5.95 -2.91,-9.56 -0.55,-3.75 -0.37,-7.01 0.46,-10.78l0 0c1.48,-6.87 5.75,-13.06 11.43,-17.17 2.51,-1.82 6.72,-4.06 9.8,-4.75 0,0 0,0 0,0 3.61,-4.3 4.04,-7.37 10.06,-11.24 7.77,-4.99 16.55,-5.45 24.9,-1.86zm1.61 9.02c-5.9,-5.45 -13.78,-6.92 -21.07,-3.47l0 0c-3.98,1.9 -6.86,4.89 -9.05,8.66 1.12,0.46 2.39,1.21 2.61,2.3l0 0c0.27,1.36 0.06,2.07 -1.78,2.23 -0.49,0.04 -2.1,-0.07 -2.8,-0.03 -2.14,0.14 -5.98,1.86 -7.81,3.09 -8.83,5.96 -13.17,18.06 -9.2,28.07 2,5.06 5.15,9.19 9.68,11.99 3.05,1.88 6.58,3.03 10.41,3.33 3.97,0.32 8.6,-0.6 12.11,-2.45l0 -0.01c5.14,-2.72 8.66,-7.15 9.66,-12.83l0 0c0.13,-0.8 0.22,-1.95 0.23,-3.07 0.02,-0.86 -0.02,-2.52 -0.13,-2.86 -0.16,-1.05 -0.47,-2.18 -0.85,-3.22 -0.39,-1.04 -0.86,-2 -1.34,-2.71l0 0c-1.54,-2.27 -3.56,-3.93 -6.03,-5.24 -4.17,-2.19 -8.17,-2.18 -12.07,0.4l0 0.01c-0.13,0.12 -1.11,0.86 -2.13,1.79 -4.15,3.82 -4.13,10.8 -0.45,14.84l0 0c0.72,0.78 1.46,1.37 2.23,1.78 1.49,0.78 3.52,0.95 4.96,0.16 2.86,-1.58 2.71,-5.75 -0.16,-7.15 -1.04,-0.51 -1.78,-0.58 -2.9,-0.29l0 -0.01c-2.18,0.62 -2.59,0 -3.56,-1.8l-1.09 -1.95c-0.21,-0.33 -0.67,-1.3 -0.77,-1.66l0 0c-0.16,-1.27 0.52,-2.02 1.44,-2.55 0.33,-0.16 1.17,-0.33 1.53,-0.33 1.31,0 1.81,0.71 2.5,1.68 0.4,0.46 1.13,0.5 1.55,0.26 0.53,-0.29 1.15,-1.38 1.65,-1.66 1.17,-0.65 3.34,-0.03 4.14,0.89 0.64,0.75 0.49,1.22 0.46,2.04 -0.02,0.3 -0.07,1.04 0.02,1.24 0.29,0.61 1.14,1.08 1.77,0.97l0 0.01c1.79,-0.32 2.39,0.1 3.13,1.61 0.29,0.61 0.52,1.4 0.45,2 -0.2,1.6 -1.4,1.03 -1.78,2.44 -0.06,0.3 -0.04,1.25 0.03,1.43 0.15,0.39 1.77,1.44 1.77,2.68 0,0.51 -0.28,1.08 -0.48,1.58l-0.8 1.72c-0.71,-0.01 -1.42,-0.03 -2.13,-0.03 -0.72,-0.01 -0.9,0.06 -1.4,0.59 -0.59,0.62 -0.57,0.71 -0.55,1.41l0.15 2.17c-1.08,0.45 -2.61,1.3 -3.8,1.05 -1.27,-0.26 -1.77,-1.29 -2.46,-1.55 -0.38,-0.14 -1.24,-0.09 -1.63,0.09 -0.6,0.29 -1.27,1.66 -2.53,1.66 -0.75,0 -2.95,-0.97 -3.73,-1.28l0.33 -1.95c0.32,-1.89 -0.48,-1.59 -2.13,-3.2 -4.42,-4.29 -6.16,-9.75 -4.89,-15.82 5.25,-25.19 43.73,-14.84 39.87,10.83 -0.22,1.48 -0.64,3.41 -1.39,6.64 -0.24,1.03 -0.61,1.27 -0.07,2.05 0.82,1.2 3.61,3.94 4.81,4.83 4.44,3.28 9.66,5.12 15.13,5.11 8.12,-0.02 14.64,-4.04 19.16,-10.88 3.52,-5.34 4.38,-12 2.86,-18.27 -1.39,-5.75 -4.95,-10.29 -9.99,-13.55 -3.71,-2.41 -8.2,-3.01 -12.22,-4.7 -3.75,-1.58 -2.07,-3.89 1.18,-4.17 0.59,-0.05 1.25,-0.09 1.84,-0.09 -1.26,-0.29 -2.13,-0.39 -3.62,-0.33 -1.93,0.08 -3.28,0.39 -5.07,1.05 -0.73,0.27 -1.38,0.55 -1.78,0.77 -0.12,0.85 -0.25,1.49 -0.54,2.27 -1.1,3 -3.18,3.03 -4.32,0.15 -1.73,-4.37 -4.21,-8.03 -7.16,-10.76z"/>
 </g>
</svg>
